<svg xmlns="http://www.w3.org/2000/svg" viewBox="0 0 80 80"><defs><style>.cls-1{fill:#0167ff;}.cls-2{fill:#fff;stroke:#fff;stroke-miterlimit:10;}</style></defs><title>icon_feedback</title><g id="Layer_2" data-name="Layer 2"><g id="Layer_1-2" data-name="Layer 1"><circle class="cls-1" cx="40" cy="40" r="40"/><path class="cls-2" d="M56.09,47.57a5,5,0,0,1-4.66,3.17H37.74l-7.31,7a.89.89,0,0,1-.65.26.75.75,0,0,1-.35-.09.92.92,0,0,1-.56-.87v-6.3h-2.3a5,5,0,0,1-5-5V30.57a5,5,0,0,1,5-5H41.83a.91.91,0,0,1,.91.91,1,1,0,0,1-.91.91H26.61a3.19,3.19,0,0,0-3.17,3.18V45.74a3.18,3.18,0,0,0,3.17,3.17h3.22a.92.92,0,0,1,.91.92v5.08l6-5.74a.89.89,0,0,1,.65-.26H51.48a3.21,3.21,0,0,0,3-2,1,1,0,0,1,1.22-.52A.92.92,0,0,1,56.09,47.57Zm2.34-14.48v.13L57.09,41.7c-.26,2.17-1.83,3.43-4.18,3.43H43a3.49,3.49,0,0,1-2.44-1,1.74,1.74,0,0,1-1,.35H36.13a1.74,1.74,0,0,1-1.74-1.74V32.3a1.74,1.74,0,0,1,1.74-1.73h3.35a1.64,1.64,0,0,1,1.26.56c.35-.09,3.61-1.13,3.61-4v-4a.93.93,0,0,1,.65-.87,4.3,4.3,0,0,1,3.7.48,4.17,4.17,0,0,1,1.47,3.56v3.26h4.66A3.59,3.59,0,0,1,58.43,33.09Zm-19-.65H36.3V42.7h3.09Zm17.17.6a1.72,1.72,0,0,0-1.73-1.65H49.26a.91.91,0,0,1-.91-.91V26.3a2.4,2.4,0,0,0-.7-2,2,2,0,0,0-1.39-.3v3.3c0,4.35-4.74,5.7-5,5.78h0V41.7A1.75,1.75,0,0,0,43,43.44H53c2.13,0,2.3-1.4,2.34-1.83v0Z"/></g></g></svg>