<svg width="80" height="80" viewBox="0 0 80 80" fill="none" xmlns="http://www.w3.org/2000/svg">
<circle cx="40" cy="40" r="40" fill="#4C75A3"/>
<path fill-rule="evenodd" clip-rule="evenodd" d="M39.4267 51.56H41.8267C41.8267 51.56 42.5467 51.44 42.9067 51.08C43.2667 50.72 43.2667 50 43.2667 50C43.2667 50 43.2667 46.88 44.7067 46.4C46.1467 45.92 48.0667 49.52 49.9867 50.84C51.4267 51.92 52.5067 51.68 52.5067 51.68L57.7867 51.56C57.7867 51.56 60.5467 51.44 59.2267 49.16C59.1067 49.04 58.5067 47.6 55.2667 44.6C51.9067 41.48 52.3867 42.08 56.3467 36.68C58.7467 33.44 59.7067 31.52 59.4667 30.56C59.2267 29.72 57.4267 29.96 57.4267 29.96H51.4267C51.4267 29.96 50.9467 29.84 50.7067 30.08C50.3467 30.32 50.2267 30.68 50.2267 30.68C50.2267 30.68 49.2667 33.2 48.0667 35.36C45.4267 39.8 44.3467 40.04 43.9867 39.8C43.0267 39.2 43.2667 37.16 43.2667 35.84C43.2667 31.52 43.9867 29.72 41.9467 29.24C41.3467 29.12 40.8667 29 39.1867 29C37.0267 29 35.2267 29 34.2667 29.48C33.5467 29.84 33.0667 30.56 33.4267 30.56C33.7867 30.56 34.7467 30.8 35.2267 31.4C35.7067 32.48 35.7067 34.28 35.7067 34.28C35.7067 34.28 36.0667 39.44 34.8667 40.04C34.0267 40.52 32.9467 39.56 30.5467 35.48C29.3467 33.44 28.3867 31.04 28.3867 31.04C28.3867 31.04 28.2667 30.56 27.9067 30.32C27.5467 30.08 26.9467 29.96 26.9467 29.96H21.3067C21.3067 29.96 20.4667 29.96 20.1067 30.32C19.8667 30.68 20.1067 31.28 20.1067 31.28C20.1067 31.28 24.5467 41.6 29.5867 46.88C34.2667 51.92 39.4267 51.56 39.4267 51.56Z" fill="white"/>
</svg>
