<svg xmlns="http://www.w3.org/2000/svg" viewBox="0 0 80 80"><defs><style>.cls-1{fill:#0167ff;}.cls-2{fill:#fff;}</style></defs><title>icon_news</title><g id="Layer_2" data-name="Layer 2"><g id="Layer_1-2" data-name="Layer 1"><circle class="cls-1" cx="40" cy="40" r="40"/><path class="cls-2" d="M56.9,25.3C46.5,29.65,34.1,35,23.7,39.35c2.27.94,5.73,1.89,8,2.83C33.21,41.24,49.09,32,49.47,32a.41.41,0,0,1,.38.38c0,.57-13.78,11.16-15.1,12.48l1.49,6.24,5.67-4.73,9.32,8.76c.57-2.84,4.73-26,5.48-29.8Zm-1.76-3c3-1.13,5.68.76,4.92,4.16,0,0-5.1,25.9-5.67,28.55-.38,2.84-4.16,4-6.62,1.89l-5.86-5.29-4.73,4c-2.27,1.7-4.16-.38-4.91-2.46-.38-1.13-1.9-5.67-2.46-7.56-1.89-.76-6.24-2.46-7.38-3-3.4-1.32-3.59-5.29,0-6.62,11-4.53,21.94-9.45,32.9-13.8Z"/></g></g></svg>