<svg xmlns="http://www.w3.org/2000/svg" viewBox="0 0 80 80"><defs><style>.cls-1{fill:#0167ff;}.cls-2{fill:#fff;}</style></defs><title>icon_video</title><g id="Layer_2" data-name="Layer 2"><g id="Layer_1-2" data-name="Layer 1"><circle class="cls-1" cx="40" cy="40" r="40"/><path class="cls-2" d="M57.63,40.74a1.39,1.39,0,0,0-1.37-.06l-6.52,3.23v-1.5A3.37,3.37,0,0,0,46.39,39H25.55a3.35,3.35,0,0,0-3.33,3.38V54.64A3.32,3.32,0,0,0,25.55,58H46.39a3.34,3.34,0,0,0,3.35-3.35V52.72l6.51,3.22a1.42,1.42,0,0,0,.63.15,1.35,1.35,0,0,0,.73-.21,1.39,1.39,0,0,0,.67-1.18V41.91A1.39,1.39,0,0,0,57.63,40.74ZM47.05,54.62a.6.6,0,0,1-.59.6H25.6a.6.6,0,0,1-.6-.6V42.4a.6.6,0,0,1,.6-.59H46.46a.6.6,0,0,1,.59.59Zm8.45-2.15-5.76-2.85V47l5.76-2.85Z"/><path class="cls-2" d="M28,38.41a6.27,6.27,0,0,0,6.27-6.27,1.48,1.48,0,0,0,0-.21,8.1,8.1,0,1,0-.21-1.81c0,.14,0,.3,0,.45A6.27,6.27,0,1,0,28,38.41ZM42.17,24.79a5.34,5.34,0,1,1-5.34,5.34A5.34,5.34,0,0,1,42.17,24.79ZM28,28.67a3.49,3.49,0,1,1-3.49,3.48A3.49,3.49,0,0,1,28,28.67Z"/></g></g></svg>