<svg xmlns="http://www.w3.org/2000/svg" viewBox="0 0 80 80"><defs><style>.cls-1{fill:#0167ff;}.cls-2{fill:#fff;}</style></defs><title>icon_check</title><g id="Layer_2" data-name="Layer 2"><g id="Layer_1-2" data-name="Layer 1"><circle class="cls-1" cx="40" cy="40" r="40"/><path class="cls-2" d="M56.37,24a1.62,1.62,0,0,0-1.08.49c-4.13,4.33-13.46,14.32-18.14,19.25l-5.5-4.86a1.57,1.57,0,1,0-2.08,2.35l6.65,5.87a1.61,1.61,0,0,0,2.17-.1c4.37-4.57,14.85-15.82,19.17-20.34A1.57,1.57,0,0,0,56.37,24ZM22,27.88v26.6a1.63,1.63,0,0,0,1.56,1.57H51a1.63,1.63,0,0,0,1.57-1.57V40.79a1.57,1.57,0,1,0-3.13,0V52.92H25.13V29.44H46.26a1.57,1.57,0,1,0,0-3.13H23.56A1.68,1.68,0,0,0,22,27.88Z"/></g></g></svg>