<svg xmlns="http://www.w3.org/2000/svg" viewBox="0 0 80 80"><defs><style>.cls-1{fill:#0167ff;}.cls-2{fill:#fff;stroke:#fff;stroke-miterlimit:10;}</style></defs><title>icon_messages</title><g id="Layer_2" data-name="Layer 2"><g id="Layer_1-2" data-name="Layer 1"><circle class="cls-1" cx="40" cy="40" r="40"/><path class="cls-2" d="M55.4,26.8A15.83,15.83,0,0,0,44.12,22H35.46a14.93,14.93,0,1,0-.33,29.86h6a1.06,1.06,0,0,1,.74.37l7.13,5.32a1.52,1.52,0,0,0,2.6-1.07V50.67a1,1,0,0,1,.52-.8,14.8,14.8,0,0,0,7.46-12.52A14.47,14.47,0,0,0,55.4,26.8ZM53.69,45.94a12.46,12.46,0,0,1-2.62,2,3.12,3.12,0,0,0-1.64,2.72v4.43l-6.07-4.53a3.12,3.12,0,0,0-2.18-.91H35.46a12.72,12.72,0,1,1,0-25.43h8.66a13.63,13.63,0,0,1,9.7,4.12,12.29,12.29,0,0,1,3.6,9,12.62,12.62,0,0,1-3.73,8.65Z"/></g></g></svg>