<svg xmlns="http://www.w3.org/2000/svg" viewBox="0 0 80 80"><defs><style>.cls-1{fill:#0167ff;}.cls-2{fill:#fff;stroke:#fff;stroke-miterlimit:10;stroke-width:0.59px;}</style></defs><title>icon_mail</title><g id="Layer_2" data-name="Layer 2"><g id="Layer_1-2" data-name="Layer 1"><circle class="cls-1" cx="40" cy="40" r="40"/><path class="cls-2" d="M22,50.94c.27,2.1,1.68,3.26,4,3.29H54c2.56,0,4-1.42,4-4h0V29.75a4.7,4.7,0,0,0-.58-2.32l0-.06a1.4,1.4,0,0,0-.1-.16h0a2.49,2.49,0,0,0-.75-.73,1.09,1.09,0,0,0-.27-.19,3.42,3.42,0,0,0-1-.36A3.71,3.71,0,0,0,54,25.78H26A3.69,3.69,0,0,0,22.7,27.2a4.3,4.3,0,0,0-.7,2.59V50.23h0A5.78,5.78,0,0,0,22,50.94ZM35.18,40.19l-11.31,8.2V29.78a4.92,4.92,0,0,1,.07-.82ZM54,52.36H26c-1.15,0-2-.31-2.13-1.66v0l12.63-9.15.78.78h0A3.6,3.6,0,0,0,41,43.45h0a4.66,4.66,0,0,0,1.7-1l.12-.13.08-.08.63-.62,12.61,9.1C56,51.89,55.36,52.36,54,52.36ZM56.07,29a5.39,5.39,0,0,1,.08.75V48.4L44.86,40.26ZM26,27.63H54.06a2.22,2.22,0,0,1,.7.07L42.88,39.58a.81.81,0,0,0-.14.12L41.6,40.84a1.42,1.42,0,0,0-.25.24,3,3,0,0,1-.93.58c-.39.1-1,.14-1.82-.67l-1.32-1.33h0l-12-12A4.61,4.61,0,0,1,26,27.63Z"/></g></g></svg>