<svg width="20" height="13" viewBox="0 0 20 13" fill="none" xmlns="http://www.w3.org/2000/svg">
<path d="M9.8081 1.63636C11.353 1.63136 12.8681 2.051 14.179 2.84705C15.49 3.64309 16.5436 4.78322 17.2188 6.13636C15.8325 8.89364 13.0009 10.6364 9.8081 10.6364C6.61526 10.6364 3.78372 8.89364 2.39735 6.13636C3.07257 4.78322 4.12622 3.64309 5.43717 2.84705C6.74812 2.051 8.26315 1.63136 9.8081 1.63636ZM9.8081 0C5.607 0 2.01926 2.54455 0.565674 6.13636C2.01926 9.72818 5.607 12.2727 9.8081 12.2727C14.0092 12.2727 17.5969 9.72818 19.0505 6.13636C17.5969 2.54455 14.0092 0 9.8081 0ZM9.8081 4.09091C10.3652 4.09091 10.8995 4.30641 11.2934 4.69001C11.6873 5.07361 11.9086 5.59388 11.9086 6.13636C11.9086 6.67885 11.6873 7.19912 11.2934 7.58272C10.8995 7.96632 10.3652 8.18182 9.8081 8.18182C9.251 8.18182 8.71671 7.96632 8.32278 7.58272C7.92885 7.19912 7.70755 6.67885 7.70755 6.13636C7.70755 5.59388 7.92885 5.07361 8.32278 4.69001C8.71671 4.30641 9.251 4.09091 9.8081 4.09091ZM9.8081 2.45455C7.72435 2.45455 6.02711 4.10727 6.02711 6.13636C6.02711 8.16545 7.72435 9.81818 9.8081 9.81818C11.8918 9.81818 13.5891 8.16545 13.5891 6.13636C13.5891 4.10727 11.8918 2.45455 9.8081 2.45455Z" fill="white"/>
</svg>
