<svg width="19" height="18" viewBox="0 0 19 18" fill="none" xmlns="http://www.w3.org/2000/svg">
<g clip-path="url(#clip0)">
<path d="M9.53205 1.125C4.42706 1.125 0.289628 4.39805 0.289628 8.4375C0.289628 10.1109 1.00808 11.6437 2.19949 12.8777C1.66155 14.2629 0.54235 15.4371 0.524298 15.4512C0.286017 15.6973 0.221031 16.0559 0.358224 16.3652C0.495416 16.6746 0.809514 16.875 1.1561 16.875C3.37645 16.875 5.12746 15.9715 6.17806 15.2473C7.22145 15.5672 8.34787 15.75 9.53205 15.75C14.637 15.75 18.7745 12.477 18.7745 8.4375C18.7745 4.39805 14.637 1.125 9.53205 1.125ZM9.53205 14.0625C8.5681 14.0625 7.61497 13.9184 6.70156 13.6371L5.88202 13.384L5.178 13.8691C4.66173 14.2242 3.9541 14.6215 3.10207 14.8887C3.36562 14.4633 3.62195 13.9852 3.82052 13.4754L4.20322 12.4875L3.45949 11.7211C2.80602 11.0426 2.02258 9.92109 2.02258 8.4375C2.02258 5.33672 5.39101 2.8125 9.53205 2.8125C13.6731 2.8125 17.0415 5.33672 17.0415 8.4375C17.0415 11.5383 13.6731 14.0625 9.53205 14.0625Z" fill="white"/>
</g>
<defs>
<clipPath id="clip0">
<rect width="18.4848" height="18" fill="white" transform="translate(0.289551)"/>
</clipPath>
</defs>
</svg>
