<svg width="22" height="22" viewBox="0 0 22 22" fill="none" xmlns="http://www.w3.org/2000/svg">
<path d="M11 22C4.91765 22 0 17.0824 0 11C0 4.91765 4.91765 0 11 0C17.0824 0 22 4.91765 22 11C22 17.0824 17.0176 22 11 22ZM11 1.29412C5.62941 1.29412 1.29412 5.62941 1.29412 11C1.29412 16.3706 5.62941 20.7059 11 20.7059C16.3706 20.7059 20.7059 16.3706 20.7059 11C20.7059 5.62941 16.3059 1.29412 11 1.29412Z" fill="black"/>
<path d="M4.65885 18.9588L3.49414 18.4412C3.81767 17.6647 4.85296 17.2118 5.95296 16.6941C7.05296 16.1765 8.41179 15.5941 8.41179 14.8824V13.9118C8.02355 13.5883 7.37649 12.8765 7.24708 11.8412C6.92355 11.5177 6.40591 10.9353 6.40591 10.1588C6.40591 9.7059 6.60002 9.31767 6.72943 9.05885C6.60002 8.5412 6.47061 7.57061 6.47061 6.79414C6.47061 4.27061 8.21767 2.58826 11 2.58826C11.7765 2.58826 12.7471 2.78237 13.2647 3.36473C14.4941 3.62355 15.5294 5.04708 15.5294 6.79414C15.5294 7.89414 15.3353 8.80002 15.2059 9.25296C15.3353 9.44708 15.4647 9.77061 15.4647 10.1588C15.4647 11 15.0118 11.5824 14.6236 11.8412C14.4941 12.8765 13.9118 13.5236 13.5236 13.8471V14.8824C13.5236 15.4647 14.6883 15.9177 15.7236 16.3059C16.953 16.7588 18.2471 17.2765 18.7 18.3118L17.4706 18.7647C17.2765 18.2471 16.2412 17.8588 15.2706 17.5353C13.8471 17.0177 12.2294 16.4353 12.2294 14.9471V13.2647L12.553 13.0706C12.553 13.0706 13.3294 12.553 13.3294 11.5177V11.0647L13.7177 10.8706C13.7824 10.8706 14.1059 10.6765 14.1059 10.1588C14.1059 10.0294 13.9765 9.83532 13.9118 9.77061L13.653 9.51179L13.7824 9.18826C13.7824 9.18826 14.1059 8.15296 14.1059 6.85885C14.1059 5.62943 13.3941 4.72355 12.8118 4.72355H12.4236L12.2294 4.40002C12.2294 4.1412 11.7765 3.88237 11 3.88237C8.99414 3.88237 7.76473 4.98237 7.76473 6.79414C7.76473 7.63532 8.08826 9.05885 8.08826 9.05885L8.15296 9.38237L7.89414 9.7059C7.82943 9.7059 7.70002 9.90002 7.70002 10.1588C7.70002 10.4824 8.08826 10.8706 8.28238 11L8.5412 11.1941V11.5177C8.5412 12.4883 9.38238 13.0059 9.38238 13.0706L9.70591 13.2647V14.9471C9.70591 16.5 8.02355 17.2765 6.47061 17.9236C5.75885 18.1824 4.78826 18.6353 4.65885 18.9588Z" fill="black"/>
</svg>
