<svg width="32" height="32" viewBox="0 0 32 32" fill="none" xmlns="http://www.w3.org/2000/svg">
<path d="M12.6666 5.33337C14.3247 5.33334 15.948 5.80893 17.3439 6.70373C18.7398 7.59853 19.8497 8.87497 20.5419 10.3816C21.2342 11.8882 21.4798 13.5619 21.2494 15.2038C21.0191 16.8458 20.3226 18.3873 19.2426 19.6454L26.7679 27.1707L25.8253 28.1134L18.2986 20.5867C17.2371 21.4945 15.9719 22.1322 14.6108 22.4457C13.2497 22.7591 11.8331 22.7389 10.4814 22.3869C9.12983 22.0348 7.88332 21.3613 6.84808 20.4237C5.81285 19.4861 5.01955 18.3122 4.53577 17.0019C4.05198 15.6917 3.89204 14.2839 4.06955 12.8985C4.24707 11.5132 4.75679 10.1912 5.5553 9.04525C6.35381 7.8993 7.41746 6.96332 8.65565 6.31703C9.89384 5.67073 11.2699 5.33327 12.6666 5.33337ZM12.6666 6.66671C10.7217 6.66671 8.85642 7.43932 7.48115 8.81459C6.10589 10.1899 5.33327 12.0551 5.33327 14C5.33327 15.945 6.10589 17.8102 7.48115 19.1855C8.85642 20.5608 10.7217 21.3334 12.6666 21.3334C14.6115 21.3334 16.4768 20.5608 17.8521 19.1855C19.2273 17.8102 19.9999 15.945 19.9999 14C19.9999 12.0551 19.2273 10.1899 17.8521 8.81459C16.4768 7.43932 14.6115 6.66671 12.6666 6.66671Z" fill="#282828"/>
</svg>
