<svg xmlns="http://www.w3.org/2000/svg" viewBox="0 0 80 80"><defs><style>.cls-1{fill:#0167ff;}.cls-2{fill:#fff;stroke:#fff;stroke-miterlimit:10;stroke-width:0.75px;}</style></defs><title>icon_forum</title><g id="Layer_2" data-name="Layer 2"><g id="Layer_1-2" data-name="Layer 1"><circle class="cls-1" cx="40" cy="40" r="40"/><path class="cls-2" d="M39.94,22a17.59,17.59,0,0,1,12.74,5.32A17.93,17.93,0,1,1,27.32,52.68,17.65,17.65,0,0,1,22,39.94a17.37,17.37,0,0,1,5.32-12.62A17.37,17.37,0,0,1,39.94,22ZM44,24.35A22,22,0,0,1,48.23,31a21.8,21.8,0,0,0,3.83-1.85A15.8,15.8,0,0,0,44,24.35Zm9.16,6.31a28.67,28.67,0,0,1-4.33,2A24.34,24.34,0,0,1,50,39.94h6.18A15.7,15.7,0,0,0,53.18,30.66Zm2.84,11H50a27.74,27.74,0,0,1-1.61,7,23.28,23.28,0,0,1,4,1.73A15.55,15.55,0,0,0,56,41.67Zm-5,10.14a21.43,21.43,0,0,0-3.46-1.48A22.21,22.21,0,0,1,44,55.65,15.76,15.76,0,0,0,51.07,51.81ZM40.93,56.14a20.85,20.85,0,0,0,4.7-6.3,19.16,19.16,0,0,0-4.7-.62Zm-1.86-6.92a21,21,0,0,0-4.82.62,23.49,23.49,0,0,0,4.82,6.3Zm1.86-1.86a25.74,25.74,0,0,1,5.44.87,20.3,20.3,0,0,0,1.49-6.56H40.93Zm-1.86-5.69H32a29.43,29.43,0,0,0,1.49,6.56,28.19,28.19,0,0,1,5.56-.87Zm1.86-1.73h7a24.16,24.16,0,0,0-1-6.68,25.83,25.83,0,0,1-6.06.86Zm-1.86-5.82A25,25,0,0,1,33,33.26a20.38,20.38,0,0,0-1,6.68h7Zm1.86-1.73a28.72,28.72,0,0,0,5.44-.74,21.63,21.63,0,0,0-5.44-7.79Zm-1.86-8.53a21.63,21.63,0,0,0-5.44,7.79,26.32,26.32,0,0,0,5.44.74ZM31.77,31A19.78,19.78,0,0,1,36,24.35a15.8,15.8,0,0,0-8,4.83A18.12,18.12,0,0,0,31.77,31ZM30,39.94a24.34,24.34,0,0,1,1.11-7.3,24.12,24.12,0,0,1-4.33-2,16.16,16.16,0,0,0-3.09,9.28Zm1.61,8.78a23.14,23.14,0,0,1-1.61-7H23.86a15.8,15.8,0,0,0,3.83,8.78A23.28,23.28,0,0,1,31.65,48.72ZM36,55.65a19.18,19.18,0,0,1-3.59-5.32,17.42,17.42,0,0,0-3.46,1.48A15.16,15.16,0,0,0,36,55.65Z"/></g></g></svg>