<svg xmlns="http://www.w3.org/2000/svg" viewBox="0 0 80 80"><defs><style>.cls-1{fill:#0167ff;}.cls-2,.cls-3{stroke:#fff;stroke-linecap:round;stroke-linejoin:round;}.cls-2{stroke-width:1.7px;}.cls-3{fill:none;stroke-width:2.07px;}</style></defs><title>icon_ads</title><g id="Layer_2" data-name="Layer 2"><g id="Layer_1-2" data-name="Layer 1"><circle class="cls-1" cx="40" cy="40" r="40"/><path class="cls-2" d="M54.46,24h0Z"/><ellipse class="cls-3" cx="53.22" cy="37.52" rx="3.59" ry="14.1"/><path class="cls-3" d="M29.57,37.53c0,3.48.62,6.3,1.38,6.3,12.44,0,17.88,5,20.86,7.2.94.68,1.41.59,1.41.59-2,0-3.59-6.32-3.59-14.1,0-7,1.3-12.83,3-13.92a5.29,5.29,0,0,0-.81.5c-3,2.15-8.44,7.1-20.88,7.1v0C30.19,31.22,29.57,34,29.57,37.53Z"/><path class="cls-3" d="M53.22,23.42h0Z"/><path class="cls-3" d="M23.19,37.52c0,3.29,1.75,6,3.91,6h3.19a20,20,0,0,1-.72-5.95,20.22,20.22,0,0,1,.72-6H27.1C24.94,31.54,23.19,34.22,23.19,37.52Z"/><path class="cls-3" d="M33,56.39c1.22.7,3.81-.73,3.81-.73s1.11-.49,1.11-1.26c0-1-1.11-1-1.11-2s1.11-1,1.11-2-1.11-1-1.11-2,1.11-1,1.11-2-1.11-1-1.11-2L32.89,44S31.29,55.4,33,56.39Z"/></g></g></svg>