<svg xmlns="http://www.w3.org/2000/svg" viewBox="0 0 80 80"><defs><style>.cls-1{fill:#0167ff;}.cls-2{fill:#fff;}</style></defs><title>icon_monets</title><g id="Layer_2" data-name="Layer 2"><g id="Layer_1-2" data-name="Layer 1"><circle class="cls-1" cx="40" cy="40" r="40"/><path class="cls-2" d="M33.42,22a21,21,0,0,0-9.25,1.93c-2.26,1-4.07,2.94-4.35,5.12V50.54c0,2.41,1.87,4.28,4.33,5.51a21.1,21.1,0,0,0,9.27,2,22.27,22.27,0,0,0,7.84-1.33,13.16,13.16,0,1,0,5.76-25c0-1.23,0-1.76,0-2.63-.34-2.53-2.53-4.19-4.34-5.12A21,21,0,0,0,33.42,22Zm0,2.66a18.89,18.89,0,0,1,8.12,1.67c1.74.87,2.64,1.9,2.83,2.79.18,1.57-1.52,2.85-2.83,3.5a18.74,18.74,0,0,1-8.12,1.68,18.74,18.74,0,0,1-8.12-1.68c-1.36-.84-2.86-1.63-2.85-3.38.14-.91,1-2,2.85-2.91A18.89,18.89,0,0,1,33.42,24.66ZM22.45,34a10.48,10.48,0,0,0,1.72,1A21,21,0,0,0,33.42,37a24.4,24.4,0,0,0,3.25-.22A12.83,12.83,0,0,0,35,39.52c-.52,0-1,0-1.58,0a18.81,18.81,0,0,1-8.1-1.65c-2-1-2.87-2.19-2.87-3.17ZM47,34.31A10.53,10.53,0,1,1,36.49,44.84,10.51,10.51,0,0,1,47,34.31ZM22.45,39.23a11.36,11.36,0,0,0,1.69,1,21.11,21.11,0,0,0,9.28,2l.71,0a13.61,13.61,0,0,0-.27,2.65h-.44a18.8,18.8,0,0,1-8.1-1.66c-2-1-2.87-2.18-2.87-3.17Zm0,5.27a11.42,11.42,0,0,0,1.7,1,20.93,20.93,0,0,0,9.27,1.95h.71a13.22,13.22,0,0,0,.81,2.59c-.49,0-1,.05-1.52.05a18.66,18.66,0,0,1-8.1-1.66c-2-1-2.87-2.18-2.87-3.16Zm0,5.26a11.36,11.36,0,0,0,1.69,1,21.11,21.11,0,0,0,9.28,2,25.68,25.68,0,0,0,2.95-.18,13.26,13.26,0,0,0,2.07,2.23,21.75,21.75,0,0,1-5,.58,18.78,18.78,0,0,1-8.09-1.67c-2-1-2.88-2.17-2.88-3.16Z"/></g></g></svg>